<mxfile host="app.diagrams.net" modified="2021-05-14T09:17:43.599Z" agent="5.0 (Windows)" etag="7-0i4glJN9oAbxzBxrRi" version="14.6.13" type="github">
  <diagram id="C5RBs43oDa-KdzZeNtuy" name="Page-1">
    <mxGraphModel dx="868" dy="451" grid="1" gridSize="10" guides="1" tooltips="1" connect="1" arrows="1" fold="1" page="1" pageScale="1" pageWidth="827" pageHeight="1169" math="0" shadow="0">
      <root>
        <mxCell id="WIyWlLk6GJQsqaUBKTNV-0" />
        <mxCell id="WIyWlLk6GJQsqaUBKTNV-1" parent="WIyWlLk6GJQsqaUBKTNV-0" />
        <mxCell id="WIyWlLk6GJQsqaUBKTNV-3" value="&lt;div&gt;reasonCodes=&#39;OG&#39;&lt;/div&gt;&lt;div&gt;levelOtrust_R={green,yellow,orange}&lt;br&gt;&lt;/div&gt;&lt;div&gt;Wallet=W_R&lt;/div&gt;&lt;div&gt;TokenRequestorId=TRQ_R&lt;br&gt;&lt;/div&gt;&lt;div&gt;&lt;br&gt;&lt;/div&gt;" style="rounded=1;whiteSpace=wrap;html=1;fontSize=12;glass=0;strokeWidth=1;shadow=0;" parent="WIyWlLk6GJQsqaUBKTNV-1" vertex="1">
          <mxGeometry x="480" y="90" width="230" height="80" as="geometry" />
        </mxCell>
        <mxCell id="7nTCxHOhVep_O8cVqtu8-0" value="&lt;div&gt;Configuration:&lt;br&gt;&lt;/div&gt;&lt;div&gt;Wallet=W1&lt;/div&gt;&lt;div&gt;TokenRequestorId=TRQ1&lt;br&gt;&lt;/div&gt;&lt;div&gt;Default&lt;br&gt;&lt;/div&gt;" style="rounded=0;whiteSpace=wrap;html=1;" vertex="1" parent="WIyWlLk6GJQsqaUBKTNV-1">
          <mxGeometry x="60" y="90" width="210" height="70" as="geometry" />
        </mxCell>
        <mxCell id="7nTCxHOhVep_O8cVqtu8-2" value="ReasonCode=&#39;OG&#39;" style="rhombus;whiteSpace=wrap;html=1;" vertex="1" parent="WIyWlLk6GJQsqaUBKTNV-1">
          <mxGeometry x="30" y="380" width="200" height="90" as="geometry" />
        </mxCell>
        <mxCell id="7nTCxHOhVep_O8cVqtu8-3" value="ConfWallet=RED&amp;nbsp; " style="rhombus;whiteSpace=wrap;html=1;" vertex="1" parent="WIyWlLk6GJQsqaUBKTNV-1">
          <mxGeometry x="510" y="390" width="140" height="90" as="geometry" />
        </mxCell>
        <mxCell id="7nTCxHOhVep_O8cVqtu8-5" value="W1=W2" style="rhombus;whiteSpace=wrap;html=1;" vertex="1" parent="WIyWlLk6GJQsqaUBKTNV-1">
          <mxGeometry x="290" y="180" width="80" height="80" as="geometry" />
        </mxCell>
        <mxCell id="7nTCxHOhVep_O8cVqtu8-6" value="getTrustLevelConf=LofDesci" style="rounded=0;whiteSpace=wrap;html=1;" vertex="1" parent="WIyWlLk6GJQsqaUBKTNV-1">
          <mxGeometry x="470" y="220" width="200" height="80" as="geometry" />
        </mxCell>
        <mxCell id="7nTCxHOhVep_O8cVqtu8-7" value="" style="rhombus;whiteSpace=wrap;html=1;" vertex="1" parent="WIyWlLk6GJQsqaUBKTNV-1">
          <mxGeometry x="120" y="230" width="80" height="80" as="geometry" />
        </mxCell>
      </root>
    </mxGraphModel>
  </diagram>
</mxfile>
